<mxfile host="app.diagrams.net" modified="2023-11-27T17:37:22.961Z" agent="Mozilla/5.0 (Macintosh; Intel Mac OS X 10_15_7) AppleWebKit/605.1.15 (KHTML, like Gecko) Version/16.4 Safari/605.1.15" etag="OWFnY444uswc6IJ1pdb1" version="22.1.4" type="device">
  <diagram name="Page-1" id="XHIG9rKC8EH1yT2tSrZG">
    <mxGraphModel dx="1244" dy="733" grid="1" gridSize="10" guides="1" tooltips="1" connect="1" arrows="1" fold="1" page="1" pageScale="1" pageWidth="1600" pageHeight="900" math="0" shadow="0">
      <root>
        <mxCell id="0" />
        <mxCell id="1" parent="0" />
        <mxCell id="1iglGmUyHpr2clS1ZjJc-60" value="" style="rounded=0;whiteSpace=wrap;html=1;" vertex="1" parent="1">
          <mxGeometry x="123" y="40" width="650" height="740" as="geometry" />
        </mxCell>
        <mxCell id="1iglGmUyHpr2clS1ZjJc-23" style="edgeStyle=orthogonalEdgeStyle;rounded=0;orthogonalLoop=1;jettySize=auto;html=1;endArrow=none;endFill=0;" edge="1" parent="1" source="1iglGmUyHpr2clS1ZjJc-3" target="1iglGmUyHpr2clS1ZjJc-17">
          <mxGeometry relative="1" as="geometry" />
        </mxCell>
        <mxCell id="1iglGmUyHpr2clS1ZjJc-24" style="edgeStyle=orthogonalEdgeStyle;rounded=0;orthogonalLoop=1;jettySize=auto;html=1;entryX=0;entryY=0.5;entryDx=0;entryDy=0;exitX=1;exitY=0.3333333333333333;exitDx=0;exitDy=0;exitPerimeter=0;endArrow=none;endFill=0;" edge="1" parent="1" source="1iglGmUyHpr2clS1ZjJc-3" target="1iglGmUyHpr2clS1ZjJc-12">
          <mxGeometry relative="1" as="geometry" />
        </mxCell>
        <mxCell id="1iglGmUyHpr2clS1ZjJc-3" value="Non-Registered User" style="shape=umlActor;verticalLabelPosition=bottom;verticalAlign=top;html=1;" vertex="1" parent="1">
          <mxGeometry x="43" y="570" width="30" height="60" as="geometry" />
        </mxCell>
        <mxCell id="1iglGmUyHpr2clS1ZjJc-19" style="edgeStyle=orthogonalEdgeStyle;rounded=0;orthogonalLoop=1;jettySize=auto;html=1;entryX=0;entryY=0.5;entryDx=0;entryDy=0;endArrow=none;endFill=0;exitX=1;exitY=0.3333333333333333;exitDx=0;exitDy=0;exitPerimeter=0;" edge="1" parent="1" source="1iglGmUyHpr2clS1ZjJc-4" target="1iglGmUyHpr2clS1ZjJc-16">
          <mxGeometry relative="1" as="geometry" />
        </mxCell>
        <mxCell id="1iglGmUyHpr2clS1ZjJc-21" style="edgeStyle=orthogonalEdgeStyle;rounded=0;orthogonalLoop=1;jettySize=auto;html=1;entryX=0;entryY=0.5;entryDx=0;entryDy=0;endArrow=none;endFill=0;" edge="1" parent="1" source="1iglGmUyHpr2clS1ZjJc-4" target="1iglGmUyHpr2clS1ZjJc-12">
          <mxGeometry relative="1" as="geometry" />
        </mxCell>
        <mxCell id="1iglGmUyHpr2clS1ZjJc-4" value="Registered User" style="shape=umlActor;verticalLabelPosition=bottom;verticalAlign=top;html=1;" vertex="1" parent="1">
          <mxGeometry x="43" y="455" width="30" height="60" as="geometry" />
        </mxCell>
        <mxCell id="1iglGmUyHpr2clS1ZjJc-20" style="edgeStyle=orthogonalEdgeStyle;rounded=0;orthogonalLoop=1;jettySize=auto;html=1;entryX=0;entryY=0.5;entryDx=0;entryDy=0;endArrow=none;endFill=0;" edge="1" parent="1" source="1iglGmUyHpr2clS1ZjJc-5" target="1iglGmUyHpr2clS1ZjJc-16">
          <mxGeometry relative="1" as="geometry" />
        </mxCell>
        <mxCell id="1iglGmUyHpr2clS1ZjJc-50" style="edgeStyle=orthogonalEdgeStyle;rounded=0;orthogonalLoop=1;jettySize=auto;html=1;entryX=0;entryY=0.5;entryDx=0;entryDy=0;exitX=1;exitY=0.3333333333333333;exitDx=0;exitDy=0;exitPerimeter=0;endArrow=none;endFill=0;" edge="1" parent="1" source="1iglGmUyHpr2clS1ZjJc-5" target="1iglGmUyHpr2clS1ZjJc-45">
          <mxGeometry relative="1" as="geometry">
            <Array as="points">
              <mxPoint x="143" y="370" />
              <mxPoint x="143" y="305" />
            </Array>
          </mxGeometry>
        </mxCell>
        <mxCell id="1iglGmUyHpr2clS1ZjJc-5" value="Flight Attendant" style="shape=umlActor;verticalLabelPosition=bottom;verticalAlign=top;html=1;" vertex="1" parent="1">
          <mxGeometry x="43" y="350" width="30" height="60" as="geometry" />
        </mxCell>
        <mxCell id="1iglGmUyHpr2clS1ZjJc-52" style="edgeStyle=orthogonalEdgeStyle;rounded=0;orthogonalLoop=1;jettySize=auto;html=1;entryX=0;entryY=0.5;entryDx=0;entryDy=0;endArrow=none;endFill=0;" edge="1" parent="1" source="1iglGmUyHpr2clS1ZjJc-6" target="1iglGmUyHpr2clS1ZjJc-51">
          <mxGeometry relative="1" as="geometry" />
        </mxCell>
        <mxCell id="1iglGmUyHpr2clS1ZjJc-54" style="edgeStyle=orthogonalEdgeStyle;rounded=0;orthogonalLoop=1;jettySize=auto;html=1;entryX=0;entryY=0.5;entryDx=0;entryDy=0;endArrow=none;endFill=0;" edge="1" parent="1" source="1iglGmUyHpr2clS1ZjJc-6" target="1iglGmUyHpr2clS1ZjJc-53">
          <mxGeometry relative="1" as="geometry" />
        </mxCell>
        <mxCell id="1iglGmUyHpr2clS1ZjJc-57" style="edgeStyle=orthogonalEdgeStyle;rounded=0;orthogonalLoop=1;jettySize=auto;html=1;endArrow=none;endFill=0;" edge="1" parent="1" source="1iglGmUyHpr2clS1ZjJc-6" target="1iglGmUyHpr2clS1ZjJc-55">
          <mxGeometry relative="1" as="geometry" />
        </mxCell>
        <mxCell id="1iglGmUyHpr2clS1ZjJc-6" value="System Administrator" style="shape=umlActor;verticalLabelPosition=bottom;verticalAlign=top;html=1;" vertex="1" parent="1">
          <mxGeometry x="43" y="125" width="30" height="60" as="geometry" />
        </mxCell>
        <mxCell id="1iglGmUyHpr2clS1ZjJc-9" value="Bank" style="shape=umlActor;verticalLabelPosition=bottom;verticalAlign=top;html=1;" vertex="1" parent="1">
          <mxGeometry x="823" y="515" width="30" height="60" as="geometry" />
        </mxCell>
        <mxCell id="1iglGmUyHpr2clS1ZjJc-39" style="edgeStyle=orthogonalEdgeStyle;rounded=0;orthogonalLoop=1;jettySize=auto;html=1;entryX=1;entryY=0.5;entryDx=0;entryDy=0;endArrow=none;endFill=0;startArrow=none;startFill=0;" edge="1" parent="1" source="1iglGmUyHpr2clS1ZjJc-10" target="1iglGmUyHpr2clS1ZjJc-37">
          <mxGeometry relative="1" as="geometry" />
        </mxCell>
        <mxCell id="1iglGmUyHpr2clS1ZjJc-10" value="Database" style="shape=umlActor;verticalLabelPosition=bottom;verticalAlign=top;html=1;" vertex="1" parent="1">
          <mxGeometry x="823" y="350" width="30" height="60" as="geometry" />
        </mxCell>
        <mxCell id="1iglGmUyHpr2clS1ZjJc-11" value="Email Service" style="shape=umlActor;verticalLabelPosition=bottom;verticalAlign=top;html=1;" vertex="1" parent="1">
          <mxGeometry x="823" y="650" width="30" height="60" as="geometry" />
        </mxCell>
        <mxCell id="1iglGmUyHpr2clS1ZjJc-27" value="&amp;lt;&amp;lt;include&amp;gt;&amp;gt;" style="edgeStyle=orthogonalEdgeStyle;rounded=0;orthogonalLoop=1;jettySize=auto;html=1;entryX=0;entryY=0.5;entryDx=0;entryDy=0;" edge="1" parent="1" source="1iglGmUyHpr2clS1ZjJc-12" target="1iglGmUyHpr2clS1ZjJc-26">
          <mxGeometry relative="1" as="geometry">
            <mxPoint as="offset" />
          </mxGeometry>
        </mxCell>
        <mxCell id="1iglGmUyHpr2clS1ZjJc-12" value="Book Flight" style="ellipse;whiteSpace=wrap;html=1;" vertex="1" parent="1">
          <mxGeometry x="203" y="460" width="80" height="50" as="geometry" />
        </mxCell>
        <mxCell id="1iglGmUyHpr2clS1ZjJc-44" style="edgeStyle=orthogonalEdgeStyle;rounded=0;orthogonalLoop=1;jettySize=auto;html=1;endArrow=none;endFill=0;" edge="1" parent="1" source="1iglGmUyHpr2clS1ZjJc-13" target="1iglGmUyHpr2clS1ZjJc-11">
          <mxGeometry relative="1" as="geometry" />
        </mxCell>
        <mxCell id="1iglGmUyHpr2clS1ZjJc-13" value="Email Flight Details" style="ellipse;whiteSpace=wrap;html=1;" vertex="1" parent="1">
          <mxGeometry x="678" y="710" width="80" height="50" as="geometry" />
        </mxCell>
        <mxCell id="1iglGmUyHpr2clS1ZjJc-35" style="edgeStyle=orthogonalEdgeStyle;rounded=0;orthogonalLoop=1;jettySize=auto;html=1;endArrow=none;endFill=0;" edge="1" parent="1" source="1iglGmUyHpr2clS1ZjJc-14" target="1iglGmUyHpr2clS1ZjJc-9">
          <mxGeometry relative="1" as="geometry" />
        </mxCell>
        <mxCell id="1iglGmUyHpr2clS1ZjJc-41" value="&amp;lt;&amp;lt;include&amp;gt;&amp;gt;" style="edgeStyle=orthogonalEdgeStyle;rounded=0;orthogonalLoop=1;jettySize=auto;html=1;entryX=0;entryY=0.5;entryDx=0;entryDy=0;" edge="1" parent="1" source="1iglGmUyHpr2clS1ZjJc-14" target="1iglGmUyHpr2clS1ZjJc-15">
          <mxGeometry relative="1" as="geometry" />
        </mxCell>
        <mxCell id="1iglGmUyHpr2clS1ZjJc-14" value="Process Payment" style="ellipse;whiteSpace=wrap;html=1;" vertex="1" parent="1">
          <mxGeometry x="598" y="520" width="80" height="50" as="geometry" />
        </mxCell>
        <mxCell id="1iglGmUyHpr2clS1ZjJc-43" style="edgeStyle=orthogonalEdgeStyle;rounded=0;orthogonalLoop=1;jettySize=auto;html=1;endArrow=none;endFill=0;" edge="1" parent="1" source="1iglGmUyHpr2clS1ZjJc-15" target="1iglGmUyHpr2clS1ZjJc-11">
          <mxGeometry relative="1" as="geometry" />
        </mxCell>
        <mxCell id="1iglGmUyHpr2clS1ZjJc-15" value="Email Receipt" style="ellipse;whiteSpace=wrap;html=1;" vertex="1" parent="1">
          <mxGeometry x="678" y="625" width="80" height="50" as="geometry" />
        </mxCell>
        <mxCell id="1iglGmUyHpr2clS1ZjJc-16" value="Login" style="ellipse;whiteSpace=wrap;html=1;" vertex="1" parent="1">
          <mxGeometry x="203" y="355" width="80" height="50" as="geometry" />
        </mxCell>
        <mxCell id="1iglGmUyHpr2clS1ZjJc-17" value="Register" style="ellipse;whiteSpace=wrap;html=1;" vertex="1" parent="1">
          <mxGeometry x="203" y="575" width="80" height="50" as="geometry" />
        </mxCell>
        <mxCell id="1iglGmUyHpr2clS1ZjJc-28" value="&amp;lt;&amp;lt;include&amp;gt;&amp;gt;" style="edgeStyle=orthogonalEdgeStyle;rounded=0;orthogonalLoop=1;jettySize=auto;html=1;entryX=0;entryY=0.5;entryDx=0;entryDy=0;" edge="1" parent="1" source="1iglGmUyHpr2clS1ZjJc-26" target="1iglGmUyHpr2clS1ZjJc-14">
          <mxGeometry relative="1" as="geometry" />
        </mxCell>
        <mxCell id="1iglGmUyHpr2clS1ZjJc-40" value="&amp;lt;&amp;lt;include&amp;gt;&amp;gt;" style="edgeStyle=orthogonalEdgeStyle;rounded=0;orthogonalLoop=1;jettySize=auto;html=1;" edge="1" parent="1" source="1iglGmUyHpr2clS1ZjJc-26" target="1iglGmUyHpr2clS1ZjJc-37">
          <mxGeometry relative="1" as="geometry" />
        </mxCell>
        <mxCell id="1iglGmUyHpr2clS1ZjJc-42" value="&amp;lt;&amp;lt;include&amp;gt;&amp;gt;" style="edgeStyle=orthogonalEdgeStyle;rounded=0;orthogonalLoop=1;jettySize=auto;html=1;entryX=0;entryY=0.5;entryDx=0;entryDy=0;" edge="1" parent="1" source="1iglGmUyHpr2clS1ZjJc-26" target="1iglGmUyHpr2clS1ZjJc-13">
          <mxGeometry relative="1" as="geometry">
            <Array as="points">
              <mxPoint x="443" y="735" />
            </Array>
          </mxGeometry>
        </mxCell>
        <mxCell id="1iglGmUyHpr2clS1ZjJc-26" value="Make Payment" style="ellipse;whiteSpace=wrap;html=1;" vertex="1" parent="1">
          <mxGeometry x="403" y="460" width="80" height="50" as="geometry" />
        </mxCell>
        <mxCell id="1iglGmUyHpr2clS1ZjJc-34" value="&amp;lt;&amp;lt;include&amp;gt;&amp;gt;" style="edgeStyle=orthogonalEdgeStyle;rounded=0;orthogonalLoop=1;jettySize=auto;html=1;entryX=0;entryY=0.5;entryDx=0;entryDy=0;" edge="1" parent="1" source="1iglGmUyHpr2clS1ZjJc-30" target="1iglGmUyHpr2clS1ZjJc-31">
          <mxGeometry relative="1" as="geometry" />
        </mxCell>
        <mxCell id="1iglGmUyHpr2clS1ZjJc-48" value="&amp;lt;&amp;lt;extends&amp;gt;&amp;gt;" style="edgeStyle=orthogonalEdgeStyle;rounded=0;orthogonalLoop=1;jettySize=auto;html=1;entryX=0.5;entryY=0;entryDx=0;entryDy=0;" edge="1" parent="1" source="1iglGmUyHpr2clS1ZjJc-30" target="1iglGmUyHpr2clS1ZjJc-12">
          <mxGeometry relative="1" as="geometry">
            <Array as="points">
              <mxPoint x="453" y="420" />
              <mxPoint x="243" y="420" />
            </Array>
          </mxGeometry>
        </mxCell>
        <mxCell id="1iglGmUyHpr2clS1ZjJc-30" value="Browse Flights" style="ellipse;whiteSpace=wrap;html=1;" vertex="1" parent="1">
          <mxGeometry x="413" y="355" width="80" height="50" as="geometry" />
        </mxCell>
        <mxCell id="1iglGmUyHpr2clS1ZjJc-33" style="edgeStyle=orthogonalEdgeStyle;rounded=0;orthogonalLoop=1;jettySize=auto;html=1;endArrow=none;endFill=0;entryX=0;entryY=0.3333333333333333;entryDx=0;entryDy=0;entryPerimeter=0;" edge="1" parent="1" source="1iglGmUyHpr2clS1ZjJc-31" target="1iglGmUyHpr2clS1ZjJc-10">
          <mxGeometry relative="1" as="geometry">
            <mxPoint x="783" y="370" as="targetPoint" />
            <Array as="points">
              <mxPoint x="723" y="380" />
              <mxPoint x="723" y="370" />
            </Array>
          </mxGeometry>
        </mxCell>
        <mxCell id="1iglGmUyHpr2clS1ZjJc-31" value="Load Data" style="ellipse;whiteSpace=wrap;html=1;" vertex="1" parent="1">
          <mxGeometry x="603" y="355" width="80" height="50" as="geometry" />
        </mxCell>
        <mxCell id="1iglGmUyHpr2clS1ZjJc-37" value="Save Data" style="ellipse;whiteSpace=wrap;html=1;" vertex="1" parent="1">
          <mxGeometry x="598" y="430" width="80" height="50" as="geometry" />
        </mxCell>
        <mxCell id="1iglGmUyHpr2clS1ZjJc-46" value="&amp;lt;&amp;lt;include&amp;gt;&amp;gt;" style="edgeStyle=orthogonalEdgeStyle;rounded=0;orthogonalLoop=1;jettySize=auto;html=1;" edge="1" parent="1" source="1iglGmUyHpr2clS1ZjJc-45">
          <mxGeometry relative="1" as="geometry">
            <mxPoint x="643" y="350" as="targetPoint" />
          </mxGeometry>
        </mxCell>
        <mxCell id="1iglGmUyHpr2clS1ZjJc-45" value="View Passengers" style="ellipse;whiteSpace=wrap;html=1;" vertex="1" parent="1">
          <mxGeometry x="363" y="280" width="80" height="50" as="geometry" />
        </mxCell>
        <mxCell id="1iglGmUyHpr2clS1ZjJc-51" value="Login" style="ellipse;whiteSpace=wrap;html=1;" vertex="1" parent="1">
          <mxGeometry x="203" y="60" width="80" height="50" as="geometry" />
        </mxCell>
        <mxCell id="1iglGmUyHpr2clS1ZjJc-58" value="&amp;lt;&amp;lt;include&amp;gt;&amp;gt;" style="edgeStyle=orthogonalEdgeStyle;rounded=0;orthogonalLoop=1;jettySize=auto;html=1;" edge="1" parent="1" source="1iglGmUyHpr2clS1ZjJc-53">
          <mxGeometry relative="1" as="geometry">
            <mxPoint x="643" y="350" as="targetPoint" />
          </mxGeometry>
        </mxCell>
        <mxCell id="1iglGmUyHpr2clS1ZjJc-53" value="Edit Data" style="ellipse;whiteSpace=wrap;html=1;" vertex="1" parent="1">
          <mxGeometry x="203" y="190" width="80" height="50" as="geometry" />
        </mxCell>
        <mxCell id="1iglGmUyHpr2clS1ZjJc-55" value="Add Data" style="ellipse;whiteSpace=wrap;html=1;" vertex="1" parent="1">
          <mxGeometry x="203" y="125" width="80" height="50" as="geometry" />
        </mxCell>
        <mxCell id="1iglGmUyHpr2clS1ZjJc-59" style="edgeStyle=orthogonalEdgeStyle;rounded=0;orthogonalLoop=1;jettySize=auto;html=1;entryX=0.5;entryY=0;entryDx=0;entryDy=0;entryPerimeter=0;endArrow=none;endFill=0;" edge="1" parent="1" source="1iglGmUyHpr2clS1ZjJc-55" target="1iglGmUyHpr2clS1ZjJc-10">
          <mxGeometry relative="1" as="geometry" />
        </mxCell>
      </root>
    </mxGraphModel>
  </diagram>
</mxfile>
